<mxfile host="www.draw.io" modified="2023-07-19T08:28:46.074Z" agent="Mozilla/5.0 (Windows NT 10.0; Win64; x64) AppleWebKit/537.36 (KHTML, like Gecko) Chrome/114.0.0.0 Safari/537.36 Edg/114.0.1823.82" etag="aAw9RST0lFB3y3dl7H_-" version="21.6.3" type="device">
  <diagram name="Seite-1" id="0PL9pXhiIGYfJSrLwgpg">
    <mxGraphModel dx="1622" dy="889" grid="1" gridSize="10" guides="1" tooltips="1" connect="1" arrows="1" fold="1" page="1" pageScale="1" pageWidth="1169" pageHeight="827" math="0" shadow="0">
      <root>
        <mxCell id="0" />
        <mxCell id="1" parent="0" />
        <mxCell id="OPhRRIPA3tXZPmZJC1G2-1" value="" style="ellipse;html=1;shape=startState;fillColor=#000000;strokeColor=#ff0000;" parent="1" vertex="1">
          <mxGeometry x="285" y="30" width="30" height="30" as="geometry" />
        </mxCell>
        <mxCell id="OPhRRIPA3tXZPmZJC1G2-2" value="" style="edgeStyle=orthogonalEdgeStyle;html=1;verticalAlign=bottom;endArrow=open;endSize=8;strokeColor=#ff0000;rounded=0;" parent="1" source="OPhRRIPA3tXZPmZJC1G2-1" edge="1">
          <mxGeometry relative="1" as="geometry">
            <mxPoint x="300" y="120" as="targetPoint" />
          </mxGeometry>
        </mxCell>
        <mxCell id="OPhRRIPA3tXZPmZJC1G2-5" style="edgeStyle=orthogonalEdgeStyle;rounded=0;orthogonalLoop=1;jettySize=auto;html=1;" parent="1" source="OPhRRIPA3tXZPmZJC1G2-3" target="OPhRRIPA3tXZPmZJC1G2-4" edge="1">
          <mxGeometry relative="1" as="geometry" />
        </mxCell>
        <mxCell id="OPhRRIPA3tXZPmZJC1G2-3" value="Wake up in Office" style="rounded=1;whiteSpace=wrap;html=1;" parent="1" vertex="1">
          <mxGeometry x="240" y="120" width="120" height="60" as="geometry" />
        </mxCell>
        <mxCell id="OPhRRIPA3tXZPmZJC1G2-7" style="edgeStyle=orthogonalEdgeStyle;rounded=0;orthogonalLoop=1;jettySize=auto;html=1;" parent="1" source="OPhRRIPA3tXZPmZJC1G2-4" target="OPhRRIPA3tXZPmZJC1G2-6" edge="1">
          <mxGeometry relative="1" as="geometry" />
        </mxCell>
        <mxCell id="OPhRRIPA3tXZPmZJC1G2-4" value="Get Information from Computer Screen" style="rounded=1;whiteSpace=wrap;html=1;" parent="1" vertex="1">
          <mxGeometry x="240" y="240" width="120" height="60" as="geometry" />
        </mxCell>
        <mxCell id="OPhRRIPA3tXZPmZJC1G2-11" style="edgeStyle=orthogonalEdgeStyle;rounded=0;orthogonalLoop=1;jettySize=auto;html=1;" parent="1" source="OPhRRIPA3tXZPmZJC1G2-6" target="OPhRRIPA3tXZPmZJC1G2-9" edge="1">
          <mxGeometry relative="1" as="geometry" />
        </mxCell>
        <mxCell id="OPhRRIPA3tXZPmZJC1G2-6" value="Player trys to solve the riddle (paper toss)" style="rounded=1;whiteSpace=wrap;html=1;fillColor=#dae8fc;strokeColor=#6c8ebf;" parent="1" vertex="1">
          <mxGeometry x="240" y="360" width="120" height="60" as="geometry" />
        </mxCell>
        <mxCell id="OPhRRIPA3tXZPmZJC1G2-12" style="edgeStyle=orthogonalEdgeStyle;rounded=0;orthogonalLoop=1;jettySize=auto;html=1;entryX=1;entryY=0.5;entryDx=0;entryDy=0;" parent="1" source="OPhRRIPA3tXZPmZJC1G2-9" target="OPhRRIPA3tXZPmZJC1G2-6" edge="1">
          <mxGeometry relative="1" as="geometry">
            <Array as="points">
              <mxPoint x="400" y="500" />
              <mxPoint x="400" y="390" />
            </Array>
          </mxGeometry>
        </mxCell>
        <mxCell id="OPhRRIPA3tXZPmZJC1G2-13" value="No" style="edgeLabel;html=1;align=center;verticalAlign=middle;resizable=0;points=[];" parent="OPhRRIPA3tXZPmZJC1G2-12" vertex="1" connectable="0">
          <mxGeometry x="0.1261" y="-1" relative="1" as="geometry">
            <mxPoint y="1" as="offset" />
          </mxGeometry>
        </mxCell>
        <mxCell id="OPhRRIPA3tXZPmZJC1G2-15" style="edgeStyle=orthogonalEdgeStyle;rounded=0;orthogonalLoop=1;jettySize=auto;html=1;" parent="1" source="OPhRRIPA3tXZPmZJC1G2-9" target="OPhRRIPA3tXZPmZJC1G2-14" edge="1">
          <mxGeometry relative="1" as="geometry" />
        </mxCell>
        <mxCell id="OPhRRIPA3tXZPmZJC1G2-16" value="Yes" style="edgeLabel;html=1;align=center;verticalAlign=middle;resizable=0;points=[];" parent="OPhRRIPA3tXZPmZJC1G2-15" vertex="1" connectable="0">
          <mxGeometry x="-0.1143" y="1" relative="1" as="geometry">
            <mxPoint as="offset" />
          </mxGeometry>
        </mxCell>
        <mxCell id="OPhRRIPA3tXZPmZJC1G2-9" value="Solves Riddle (Hits Bin)" style="rhombus;whiteSpace=wrap;html=1;" parent="1" vertex="1">
          <mxGeometry x="267.5" y="470" width="65" height="60" as="geometry" />
        </mxCell>
        <mxCell id="OPhRRIPA3tXZPmZJC1G2-18" style="edgeStyle=orthogonalEdgeStyle;rounded=0;orthogonalLoop=1;jettySize=auto;html=1;" parent="1" source="OPhRRIPA3tXZPmZJC1G2-14" target="OPhRRIPA3tXZPmZJC1G2-17" edge="1">
          <mxGeometry relative="1" as="geometry">
            <Array as="points">
              <mxPoint x="440" y="630" />
              <mxPoint x="440" y="150" />
            </Array>
          </mxGeometry>
        </mxCell>
        <mxCell id="OPhRRIPA3tXZPmZJC1G2-14" value="Door Opens, Player can move forward" style="rounded=1;whiteSpace=wrap;html=1;" parent="1" vertex="1">
          <mxGeometry x="240" y="600" width="120" height="60" as="geometry" />
        </mxCell>
        <mxCell id="OPhRRIPA3tXZPmZJC1G2-20" style="edgeStyle=orthogonalEdgeStyle;rounded=0;orthogonalLoop=1;jettySize=auto;html=1;" parent="1" source="OPhRRIPA3tXZPmZJC1G2-17" target="OPhRRIPA3tXZPmZJC1G2-19" edge="1">
          <mxGeometry relative="1" as="geometry" />
        </mxCell>
        <mxCell id="OPhRRIPA3tXZPmZJC1G2-17" value="Teleport to&amp;nbsp; Restroom" style="rounded=1;whiteSpace=wrap;html=1;" parent="1" vertex="1">
          <mxGeometry x="480" y="120" width="120" height="60" as="geometry" />
        </mxCell>
        <mxCell id="OPhRRIPA3tXZPmZJC1G2-22" style="edgeStyle=orthogonalEdgeStyle;rounded=0;orthogonalLoop=1;jettySize=auto;html=1;" parent="1" source="OPhRRIPA3tXZPmZJC1G2-19" target="OPhRRIPA3tXZPmZJC1G2-21" edge="1">
          <mxGeometry relative="1" as="geometry" />
        </mxCell>
        <mxCell id="OPhRRIPA3tXZPmZJC1G2-19" value="Arcade Game Shouts sth" style="rounded=1;whiteSpace=wrap;html=1;" parent="1" vertex="1">
          <mxGeometry x="480" y="240" width="120" height="60" as="geometry" />
        </mxCell>
        <mxCell id="OPhRRIPA3tXZPmZJC1G2-24" style="edgeStyle=orthogonalEdgeStyle;rounded=0;orthogonalLoop=1;jettySize=auto;html=1;" parent="1" source="OPhRRIPA3tXZPmZJC1G2-21" target="OPhRRIPA3tXZPmZJC1G2-23" edge="1">
          <mxGeometry relative="1" as="geometry" />
        </mxCell>
        <mxCell id="OPhRRIPA3tXZPmZJC1G2-21" value="Player trys to solve the riddle (Arcade Game)" style="rounded=1;whiteSpace=wrap;html=1;fillColor=#d5e8d4;strokeColor=#82b366;" parent="1" vertex="1">
          <mxGeometry x="480" y="360" width="120" height="60" as="geometry" />
        </mxCell>
        <mxCell id="OPhRRIPA3tXZPmZJC1G2-27" style="edgeStyle=orthogonalEdgeStyle;rounded=0;orthogonalLoop=1;jettySize=auto;html=1;entryX=1;entryY=0.5;entryDx=0;entryDy=0;" parent="1" source="OPhRRIPA3tXZPmZJC1G2-23" target="OPhRRIPA3tXZPmZJC1G2-21" edge="1">
          <mxGeometry relative="1" as="geometry">
            <Array as="points">
              <mxPoint x="620" y="500" />
              <mxPoint x="620" y="390" />
            </Array>
          </mxGeometry>
        </mxCell>
        <mxCell id="OPhRRIPA3tXZPmZJC1G2-28" value="No" style="edgeLabel;html=1;align=center;verticalAlign=middle;resizable=0;points=[];" parent="OPhRRIPA3tXZPmZJC1G2-27" vertex="1" connectable="0">
          <mxGeometry x="-0.0817" relative="1" as="geometry">
            <mxPoint as="offset" />
          </mxGeometry>
        </mxCell>
        <mxCell id="OPhRRIPA3tXZPmZJC1G2-30" style="edgeStyle=orthogonalEdgeStyle;rounded=0;orthogonalLoop=1;jettySize=auto;html=1;entryX=0.5;entryY=0;entryDx=0;entryDy=0;" parent="1" source="OPhRRIPA3tXZPmZJC1G2-23" target="OPhRRIPA3tXZPmZJC1G2-29" edge="1">
          <mxGeometry relative="1" as="geometry" />
        </mxCell>
        <mxCell id="OPhRRIPA3tXZPmZJC1G2-43" value="Yes" style="edgeLabel;html=1;align=center;verticalAlign=middle;resizable=0;points=[];" parent="OPhRRIPA3tXZPmZJC1G2-30" vertex="1" connectable="0">
          <mxGeometry x="-0.2874" relative="1" as="geometry">
            <mxPoint as="offset" />
          </mxGeometry>
        </mxCell>
        <mxCell id="OPhRRIPA3tXZPmZJC1G2-23" value="Solves Riddle (Solves Game)" style="rhombus;whiteSpace=wrap;html=1;" parent="1" vertex="1">
          <mxGeometry x="507.5" y="470" width="65" height="60" as="geometry" />
        </mxCell>
        <mxCell id="OPhRRIPA3tXZPmZJC1G2-42" style="edgeStyle=orthogonalEdgeStyle;rounded=0;orthogonalLoop=1;jettySize=auto;html=1;" parent="1" source="OPhRRIPA3tXZPmZJC1G2-29" target="OPhRRIPA3tXZPmZJC1G2-32" edge="1">
          <mxGeometry relative="1" as="geometry">
            <Array as="points">
              <mxPoint x="640" y="630" />
              <mxPoint x="640" y="150" />
            </Array>
          </mxGeometry>
        </mxCell>
        <mxCell id="OPhRRIPA3tXZPmZJC1G2-29" value="Door Opens, Player can move forward" style="rounded=1;whiteSpace=wrap;html=1;" parent="1" vertex="1">
          <mxGeometry x="480" y="600" width="120" height="60" as="geometry" />
        </mxCell>
        <mxCell id="OPhRRIPA3tXZPmZJC1G2-31" style="edgeStyle=orthogonalEdgeStyle;rounded=0;orthogonalLoop=1;jettySize=auto;html=1;" parent="1" source="OPhRRIPA3tXZPmZJC1G2-32" target="OPhRRIPA3tXZPmZJC1G2-34" edge="1">
          <mxGeometry relative="1" as="geometry" />
        </mxCell>
        <mxCell id="OPhRRIPA3tXZPmZJC1G2-32" value="Teleport to&amp;nbsp; Lift" style="rounded=1;whiteSpace=wrap;html=1;" parent="1" vertex="1">
          <mxGeometry x="660" y="120" width="120" height="60" as="geometry" />
        </mxCell>
        <mxCell id="OPhRRIPA3tXZPmZJC1G2-33" style="edgeStyle=orthogonalEdgeStyle;rounded=0;orthogonalLoop=1;jettySize=auto;html=1;" parent="1" source="OPhRRIPA3tXZPmZJC1G2-34" target="OPhRRIPA3tXZPmZJC1G2-36" edge="1">
          <mxGeometry relative="1" as="geometry" />
        </mxCell>
        <mxCell id="OPhRRIPA3tXZPmZJC1G2-34" value="Voice From Lift?..." style="rounded=1;whiteSpace=wrap;html=1;" parent="1" vertex="1">
          <mxGeometry x="660" y="240" width="120" height="60" as="geometry" />
        </mxCell>
        <mxCell id="OPhRRIPA3tXZPmZJC1G2-35" style="edgeStyle=orthogonalEdgeStyle;rounded=0;orthogonalLoop=1;jettySize=auto;html=1;" parent="1" source="OPhRRIPA3tXZPmZJC1G2-36" target="OPhRRIPA3tXZPmZJC1G2-40" edge="1">
          <mxGeometry relative="1" as="geometry" />
        </mxCell>
        <mxCell id="OPhRRIPA3tXZPmZJC1G2-36" value="Player trys to solve the riddle (Get Correct sequence of numbers)" style="rounded=1;whiteSpace=wrap;html=1;fillColor=#f8cecc;strokeColor=#b85450;" parent="1" vertex="1">
          <mxGeometry x="660" y="360" width="120" height="60" as="geometry" />
        </mxCell>
        <mxCell id="OPhRRIPA3tXZPmZJC1G2-37" style="edgeStyle=orthogonalEdgeStyle;rounded=0;orthogonalLoop=1;jettySize=auto;html=1;entryX=1;entryY=0.5;entryDx=0;entryDy=0;" parent="1" source="OPhRRIPA3tXZPmZJC1G2-40" target="OPhRRIPA3tXZPmZJC1G2-36" edge="1">
          <mxGeometry relative="1" as="geometry">
            <Array as="points">
              <mxPoint x="800" y="500" />
              <mxPoint x="800" y="390" />
            </Array>
          </mxGeometry>
        </mxCell>
        <mxCell id="OPhRRIPA3tXZPmZJC1G2-38" value="No" style="edgeLabel;html=1;align=center;verticalAlign=middle;resizable=0;points=[];" parent="OPhRRIPA3tXZPmZJC1G2-37" vertex="1" connectable="0">
          <mxGeometry x="-0.0817" relative="1" as="geometry">
            <mxPoint as="offset" />
          </mxGeometry>
        </mxCell>
        <mxCell id="OPhRRIPA3tXZPmZJC1G2-39" style="edgeStyle=orthogonalEdgeStyle;rounded=0;orthogonalLoop=1;jettySize=auto;html=1;entryX=0.5;entryY=0;entryDx=0;entryDy=0;" parent="1" source="OPhRRIPA3tXZPmZJC1G2-40" target="OPhRRIPA3tXZPmZJC1G2-41" edge="1">
          <mxGeometry relative="1" as="geometry" />
        </mxCell>
        <mxCell id="OPhRRIPA3tXZPmZJC1G2-44" value="Yes" style="edgeLabel;html=1;align=center;verticalAlign=middle;resizable=0;points=[];" parent="OPhRRIPA3tXZPmZJC1G2-39" vertex="1" connectable="0">
          <mxGeometry x="-0.5227" y="1" relative="1" as="geometry">
            <mxPoint as="offset" />
          </mxGeometry>
        </mxCell>
        <mxCell id="OPhRRIPA3tXZPmZJC1G2-40" value="Solves Riddle (Correct numbers)" style="rhombus;whiteSpace=wrap;html=1;" parent="1" vertex="1">
          <mxGeometry x="687.5" y="470" width="65" height="60" as="geometry" />
        </mxCell>
        <mxCell id="OPhRRIPA3tXZPmZJC1G2-57" style="edgeStyle=orthogonalEdgeStyle;rounded=0;orthogonalLoop=1;jettySize=auto;html=1;" parent="1" source="OPhRRIPA3tXZPmZJC1G2-41" target="OPhRRIPA3tXZPmZJC1G2-46" edge="1">
          <mxGeometry relative="1" as="geometry">
            <Array as="points">
              <mxPoint x="820" y="630" />
              <mxPoint x="820" y="150" />
            </Array>
          </mxGeometry>
        </mxCell>
        <mxCell id="OPhRRIPA3tXZPmZJC1G2-41" value="Door Opens, Player can move forward" style="rounded=1;whiteSpace=wrap;html=1;" parent="1" vertex="1">
          <mxGeometry x="660" y="600" width="120" height="60" as="geometry" />
        </mxCell>
        <mxCell id="OPhRRIPA3tXZPmZJC1G2-45" style="edgeStyle=orthogonalEdgeStyle;rounded=0;orthogonalLoop=1;jettySize=auto;html=1;" parent="1" source="OPhRRIPA3tXZPmZJC1G2-46" target="OPhRRIPA3tXZPmZJC1G2-48" edge="1">
          <mxGeometry relative="1" as="geometry" />
        </mxCell>
        <mxCell id="OPhRRIPA3tXZPmZJC1G2-46" value="Teleport to&amp;nbsp; Lobby" style="rounded=1;whiteSpace=wrap;html=1;" parent="1" vertex="1">
          <mxGeometry x="840" y="120" width="120" height="60" as="geometry" />
        </mxCell>
        <mxCell id="OPhRRIPA3tXZPmZJC1G2-47" style="edgeStyle=orthogonalEdgeStyle;rounded=0;orthogonalLoop=1;jettySize=auto;html=1;" parent="1" source="OPhRRIPA3tXZPmZJC1G2-48" target="OPhRRIPA3tXZPmZJC1G2-50" edge="1">
          <mxGeometry relative="1" as="geometry" />
        </mxCell>
        <mxCell id="OPhRRIPA3tXZPmZJC1G2-48" value="Plant Shouts for Water" style="rounded=1;whiteSpace=wrap;html=1;" parent="1" vertex="1">
          <mxGeometry x="840" y="240" width="120" height="60" as="geometry" />
        </mxCell>
        <mxCell id="OPhRRIPA3tXZPmZJC1G2-49" style="edgeStyle=orthogonalEdgeStyle;rounded=0;orthogonalLoop=1;jettySize=auto;html=1;" parent="1" source="OPhRRIPA3tXZPmZJC1G2-50" target="OPhRRIPA3tXZPmZJC1G2-55" edge="1">
          <mxGeometry relative="1" as="geometry" />
        </mxCell>
        <mxCell id="OPhRRIPA3tXZPmZJC1G2-50" value="Player trys to solve the riddle (Get watering can with water and water plant)" style="rounded=1;whiteSpace=wrap;html=1;fillColor=#e1d5e7;strokeColor=#9673a6;" parent="1" vertex="1">
          <mxGeometry x="840" y="360" width="120" height="70" as="geometry" />
        </mxCell>
        <mxCell id="OPhRRIPA3tXZPmZJC1G2-51" style="edgeStyle=orthogonalEdgeStyle;rounded=0;orthogonalLoop=1;jettySize=auto;html=1;" parent="1" source="OPhRRIPA3tXZPmZJC1G2-55" target="OPhRRIPA3tXZPmZJC1G2-50" edge="1">
          <mxGeometry relative="1" as="geometry">
            <Array as="points">
              <mxPoint x="980" y="500" />
              <mxPoint x="980" y="390" />
            </Array>
          </mxGeometry>
        </mxCell>
        <mxCell id="OPhRRIPA3tXZPmZJC1G2-52" value="No" style="edgeLabel;html=1;align=center;verticalAlign=middle;resizable=0;points=[];" parent="OPhRRIPA3tXZPmZJC1G2-51" vertex="1" connectable="0">
          <mxGeometry x="-0.0817" relative="1" as="geometry">
            <mxPoint as="offset" />
          </mxGeometry>
        </mxCell>
        <mxCell id="OPhRRIPA3tXZPmZJC1G2-53" style="edgeStyle=orthogonalEdgeStyle;rounded=0;orthogonalLoop=1;jettySize=auto;html=1;entryX=0.5;entryY=0;entryDx=0;entryDy=0;" parent="1" source="OPhRRIPA3tXZPmZJC1G2-55" target="OPhRRIPA3tXZPmZJC1G2-56" edge="1">
          <mxGeometry relative="1" as="geometry" />
        </mxCell>
        <mxCell id="OPhRRIPA3tXZPmZJC1G2-54" value="Yes" style="edgeLabel;html=1;align=center;verticalAlign=middle;resizable=0;points=[];" parent="OPhRRIPA3tXZPmZJC1G2-53" vertex="1" connectable="0">
          <mxGeometry x="-0.5227" y="1" relative="1" as="geometry">
            <mxPoint as="offset" />
          </mxGeometry>
        </mxCell>
        <mxCell id="OPhRRIPA3tXZPmZJC1G2-55" value="Solves Riddle (water plant)" style="rhombus;whiteSpace=wrap;html=1;" parent="1" vertex="1">
          <mxGeometry x="867.5" y="470" width="65" height="60" as="geometry" />
        </mxCell>
        <mxCell id="OPhRRIPA3tXZPmZJC1G2-59" style="edgeStyle=orthogonalEdgeStyle;rounded=0;orthogonalLoop=1;jettySize=auto;html=1;" parent="1" source="OPhRRIPA3tXZPmZJC1G2-56" target="OPhRRIPA3tXZPmZJC1G2-58" edge="1">
          <mxGeometry relative="1" as="geometry" />
        </mxCell>
        <mxCell id="OPhRRIPA3tXZPmZJC1G2-56" value="Door Opens, game is done" style="rounded=1;whiteSpace=wrap;html=1;" parent="1" vertex="1">
          <mxGeometry x="840" y="600" width="120" height="60" as="geometry" />
        </mxCell>
        <mxCell id="OPhRRIPA3tXZPmZJC1G2-58" value="" style="ellipse;html=1;shape=endState;fillColor=#000000;strokeColor=#ff0000;" parent="1" vertex="1">
          <mxGeometry x="885" y="710" width="30" height="30" as="geometry" />
        </mxCell>
        <mxCell id="jhJfc1S5eE6XktnZOSAG-5" style="edgeStyle=orthogonalEdgeStyle;rounded=0;orthogonalLoop=1;jettySize=auto;html=1;" edge="1" parent="1" source="jhJfc1S5eE6XktnZOSAG-2" target="jhJfc1S5eE6XktnZOSAG-4">
          <mxGeometry relative="1" as="geometry" />
        </mxCell>
        <mxCell id="jhJfc1S5eE6XktnZOSAG-2" value="Player gets information from Computer" style="rounded=1;whiteSpace=wrap;html=1;fillColor=#dae8fc;strokeColor=#6c8ebf;" vertex="1" parent="1">
          <mxGeometry x="199.5" y="920" width="120" height="60" as="geometry" />
        </mxCell>
        <mxCell id="jhJfc1S5eE6XktnZOSAG-8" style="edgeStyle=orthogonalEdgeStyle;rounded=0;orthogonalLoop=1;jettySize=auto;html=1;" edge="1" parent="1" source="jhJfc1S5eE6XktnZOSAG-4" target="jhJfc1S5eE6XktnZOSAG-6">
          <mxGeometry relative="1" as="geometry" />
        </mxCell>
        <mxCell id="jhJfc1S5eE6XktnZOSAG-4" value="Player grabs Paper" style="rounded=1;whiteSpace=wrap;html=1;fillColor=#dae8fc;strokeColor=#6c8ebf;" vertex="1" parent="1">
          <mxGeometry x="199.5" y="1000" width="120" height="60" as="geometry" />
        </mxCell>
        <mxCell id="jhJfc1S5eE6XktnZOSAG-9" style="edgeStyle=orthogonalEdgeStyle;rounded=0;orthogonalLoop=1;jettySize=auto;html=1;" edge="1" parent="1" source="jhJfc1S5eE6XktnZOSAG-6" target="jhJfc1S5eE6XktnZOSAG-7">
          <mxGeometry relative="1" as="geometry" />
        </mxCell>
        <mxCell id="jhJfc1S5eE6XktnZOSAG-6" value="Player throws Paper" style="rounded=1;whiteSpace=wrap;html=1;fillColor=#dae8fc;strokeColor=#6c8ebf;" vertex="1" parent="1">
          <mxGeometry x="199.5" y="1080" width="120" height="60" as="geometry" />
        </mxCell>
        <mxCell id="jhJfc1S5eE6XktnZOSAG-10" style="edgeStyle=orthogonalEdgeStyle;rounded=0;orthogonalLoop=1;jettySize=auto;html=1;" edge="1" parent="1" source="jhJfc1S5eE6XktnZOSAG-7" target="jhJfc1S5eE6XktnZOSAG-23">
          <mxGeometry relative="1" as="geometry">
            <Array as="points">
              <mxPoint x="420" y="1191" />
            </Array>
          </mxGeometry>
        </mxCell>
        <mxCell id="jhJfc1S5eE6XktnZOSAG-11" value="No" style="edgeLabel;html=1;align=center;verticalAlign=middle;resizable=0;points=[];" vertex="1" connectable="0" parent="jhJfc1S5eE6XktnZOSAG-10">
          <mxGeometry x="0.1158" y="-1" relative="1" as="geometry">
            <mxPoint y="1" as="offset" />
          </mxGeometry>
        </mxCell>
        <mxCell id="jhJfc1S5eE6XktnZOSAG-14" style="edgeStyle=orthogonalEdgeStyle;rounded=0;orthogonalLoop=1;jettySize=auto;html=1;" edge="1" parent="1" source="jhJfc1S5eE6XktnZOSAG-7" target="jhJfc1S5eE6XktnZOSAG-13">
          <mxGeometry relative="1" as="geometry" />
        </mxCell>
        <mxCell id="jhJfc1S5eE6XktnZOSAG-15" value="Yes" style="edgeLabel;html=1;align=center;verticalAlign=middle;resizable=0;points=[];" vertex="1" connectable="0" parent="jhJfc1S5eE6XktnZOSAG-14">
          <mxGeometry x="-0.1333" y="1" relative="1" as="geometry">
            <mxPoint as="offset" />
          </mxGeometry>
        </mxCell>
        <mxCell id="jhJfc1S5eE6XktnZOSAG-7" value="Hits Bin?" style="rhombus;whiteSpace=wrap;html=1;" vertex="1" parent="1">
          <mxGeometry x="227" y="1161" width="65" height="60" as="geometry" />
        </mxCell>
        <mxCell id="jhJfc1S5eE6XktnZOSAG-17" style="edgeStyle=orthogonalEdgeStyle;rounded=0;orthogonalLoop=1;jettySize=auto;html=1;" edge="1" parent="1" source="jhJfc1S5eE6XktnZOSAG-13" target="jhJfc1S5eE6XktnZOSAG-16">
          <mxGeometry relative="1" as="geometry" />
        </mxCell>
        <mxCell id="jhJfc1S5eE6XktnZOSAG-13" value="Update Count" style="rounded=1;whiteSpace=wrap;html=1;fillColor=#dae8fc;strokeColor=#6c8ebf;" vertex="1" parent="1">
          <mxGeometry x="199.5" y="1280" width="120" height="60" as="geometry" />
        </mxCell>
        <mxCell id="jhJfc1S5eE6XktnZOSAG-20" style="edgeStyle=orthogonalEdgeStyle;rounded=0;orthogonalLoop=1;jettySize=auto;html=1;" edge="1" parent="1" source="jhJfc1S5eE6XktnZOSAG-16" target="jhJfc1S5eE6XktnZOSAG-19">
          <mxGeometry relative="1" as="geometry" />
        </mxCell>
        <mxCell id="jhJfc1S5eE6XktnZOSAG-22" value="No" style="edgeLabel;html=1;align=center;verticalAlign=middle;resizable=0;points=[];" vertex="1" connectable="0" parent="jhJfc1S5eE6XktnZOSAG-20">
          <mxGeometry x="0.4724" y="-4" relative="1" as="geometry">
            <mxPoint as="offset" />
          </mxGeometry>
        </mxCell>
        <mxCell id="jhJfc1S5eE6XktnZOSAG-26" style="edgeStyle=orthogonalEdgeStyle;rounded=0;orthogonalLoop=1;jettySize=auto;html=1;" edge="1" parent="1" source="jhJfc1S5eE6XktnZOSAG-16" target="jhJfc1S5eE6XktnZOSAG-25">
          <mxGeometry relative="1" as="geometry" />
        </mxCell>
        <mxCell id="jhJfc1S5eE6XktnZOSAG-16" value="Got 10 Hits" style="rhombus;whiteSpace=wrap;html=1;" vertex="1" parent="1">
          <mxGeometry x="227" y="1360" width="65" height="60" as="geometry" />
        </mxCell>
        <mxCell id="jhJfc1S5eE6XktnZOSAG-21" style="edgeStyle=orthogonalEdgeStyle;rounded=0;orthogonalLoop=1;jettySize=auto;html=1;" edge="1" parent="1" source="jhJfc1S5eE6XktnZOSAG-19" target="jhJfc1S5eE6XktnZOSAG-4">
          <mxGeometry relative="1" as="geometry">
            <Array as="points">
              <mxPoint x="540" y="1030" />
            </Array>
          </mxGeometry>
        </mxCell>
        <mxCell id="jhJfc1S5eE6XktnZOSAG-19" value="Positive Comment from Computer" style="rounded=1;whiteSpace=wrap;html=1;fillColor=#dae8fc;strokeColor=#6c8ebf;" vertex="1" parent="1">
          <mxGeometry x="480" y="1161" width="120" height="60" as="geometry" />
        </mxCell>
        <mxCell id="jhJfc1S5eE6XktnZOSAG-24" style="edgeStyle=orthogonalEdgeStyle;rounded=0;orthogonalLoop=1;jettySize=auto;html=1;" edge="1" parent="1" source="jhJfc1S5eE6XktnZOSAG-23" target="jhJfc1S5eE6XktnZOSAG-4">
          <mxGeometry relative="1" as="geometry">
            <Array as="points">
              <mxPoint x="420" y="1030" />
            </Array>
          </mxGeometry>
        </mxCell>
        <mxCell id="jhJfc1S5eE6XktnZOSAG-23" value="Negative Comment from Computer" style="rounded=1;whiteSpace=wrap;html=1;fillColor=#dae8fc;strokeColor=#6c8ebf;" vertex="1" parent="1">
          <mxGeometry x="350" y="1161" width="120" height="60" as="geometry" />
        </mxCell>
        <mxCell id="jhJfc1S5eE6XktnZOSAG-25" value="Door opens, next room" style="rounded=1;whiteSpace=wrap;html=1;fillColor=#dae8fc;strokeColor=#6c8ebf;" vertex="1" parent="1">
          <mxGeometry x="199.5" y="1440" width="120" height="60" as="geometry" />
        </mxCell>
        <mxCell id="jhJfc1S5eE6XktnZOSAG-32" style="edgeStyle=orthogonalEdgeStyle;rounded=0;orthogonalLoop=1;jettySize=auto;html=1;" edge="1" parent="1" source="jhJfc1S5eE6XktnZOSAG-27" target="jhJfc1S5eE6XktnZOSAG-30">
          <mxGeometry relative="1" as="geometry" />
        </mxCell>
        <mxCell id="jhJfc1S5eE6XktnZOSAG-27" value="Player trys to solve the riddle (Arcade Game)" style="rounded=1;whiteSpace=wrap;html=1;fillColor=#d5e8d4;strokeColor=#82b366;" vertex="1" parent="1">
          <mxGeometry x="720" y="840" width="120" height="60" as="geometry" />
        </mxCell>
        <mxCell id="jhJfc1S5eE6XktnZOSAG-29" style="edgeStyle=orthogonalEdgeStyle;rounded=0;orthogonalLoop=1;jettySize=auto;html=1;" edge="1" parent="1" source="jhJfc1S5eE6XktnZOSAG-28" target="jhJfc1S5eE6XktnZOSAG-2">
          <mxGeometry relative="1" as="geometry" />
        </mxCell>
        <mxCell id="jhJfc1S5eE6XktnZOSAG-28" value="Player trys to solve the riddle (paper toss)" style="rounded=1;whiteSpace=wrap;html=1;fillColor=#dae8fc;strokeColor=#6c8ebf;" vertex="1" parent="1">
          <mxGeometry x="199.5" y="840" width="120" height="60" as="geometry" />
        </mxCell>
        <mxCell id="jhJfc1S5eE6XktnZOSAG-33" style="edgeStyle=orthogonalEdgeStyle;rounded=0;orthogonalLoop=1;jettySize=auto;html=1;" edge="1" parent="1" source="jhJfc1S5eE6XktnZOSAG-30" target="jhJfc1S5eE6XktnZOSAG-31">
          <mxGeometry relative="1" as="geometry" />
        </mxCell>
        <mxCell id="jhJfc1S5eE6XktnZOSAG-30" value="Player gets information from Arcade Machine" style="rounded=1;whiteSpace=wrap;html=1;fillColor=#d5e8d4;strokeColor=#82b366;" vertex="1" parent="1">
          <mxGeometry x="720" y="920" width="120" height="60" as="geometry" />
        </mxCell>
        <mxCell id="jhJfc1S5eE6XktnZOSAG-35" style="edgeStyle=orthogonalEdgeStyle;rounded=0;orthogonalLoop=1;jettySize=auto;html=1;" edge="1" parent="1" source="jhJfc1S5eE6XktnZOSAG-31" target="jhJfc1S5eE6XktnZOSAG-34">
          <mxGeometry relative="1" as="geometry" />
        </mxCell>
        <mxCell id="jhJfc1S5eE6XktnZOSAG-31" value="player throws objects in bin" style="rounded=1;whiteSpace=wrap;html=1;fillColor=#d5e8d4;strokeColor=#82b366;" vertex="1" parent="1">
          <mxGeometry x="720" y="1000" width="120" height="60" as="geometry" />
        </mxCell>
        <mxCell id="jhJfc1S5eE6XktnZOSAG-38" style="edgeStyle=orthogonalEdgeStyle;rounded=0;orthogonalLoop=1;jettySize=auto;html=1;" edge="1" parent="1" source="jhJfc1S5eE6XktnZOSAG-34" target="jhJfc1S5eE6XktnZOSAG-36">
          <mxGeometry relative="1" as="geometry" />
        </mxCell>
        <mxCell id="jhJfc1S5eE6XktnZOSAG-39" value="No" style="edgeLabel;html=1;align=center;verticalAlign=middle;resizable=0;points=[];" vertex="1" connectable="0" parent="jhJfc1S5eE6XktnZOSAG-38">
          <mxGeometry x="-0.037" y="-1" relative="1" as="geometry">
            <mxPoint as="offset" />
          </mxGeometry>
        </mxCell>
        <mxCell id="jhJfc1S5eE6XktnZOSAG-41" style="edgeStyle=orthogonalEdgeStyle;rounded=0;orthogonalLoop=1;jettySize=auto;html=1;" edge="1" parent="1" source="jhJfc1S5eE6XktnZOSAG-34" target="jhJfc1S5eE6XktnZOSAG-37">
          <mxGeometry relative="1" as="geometry">
            <mxPoint x="780" y="1240" as="targetPoint" />
          </mxGeometry>
        </mxCell>
        <mxCell id="jhJfc1S5eE6XktnZOSAG-44" value="Yes" style="edgeLabel;html=1;align=center;verticalAlign=middle;resizable=0;points=[];" vertex="1" connectable="0" parent="jhJfc1S5eE6XktnZOSAG-41">
          <mxGeometry x="-0.246" y="1" relative="1" as="geometry">
            <mxPoint as="offset" />
          </mxGeometry>
        </mxCell>
        <mxCell id="jhJfc1S5eE6XktnZOSAG-34" value="fitting Object" style="rhombus;whiteSpace=wrap;html=1;" vertex="1" parent="1">
          <mxGeometry x="747.5" y="1080" width="65" height="60" as="geometry" />
        </mxCell>
        <mxCell id="jhJfc1S5eE6XktnZOSAG-45" style="edgeStyle=orthogonalEdgeStyle;rounded=0;orthogonalLoop=1;jettySize=auto;html=1;" edge="1" parent="1" source="jhJfc1S5eE6XktnZOSAG-36" target="jhJfc1S5eE6XktnZOSAG-31">
          <mxGeometry relative="1" as="geometry">
            <Array as="points">
              <mxPoint x="930" y="1030" />
            </Array>
          </mxGeometry>
        </mxCell>
        <mxCell id="jhJfc1S5eE6XktnZOSAG-36" value="Negative Comment from Machine" style="rounded=1;whiteSpace=wrap;html=1;fillColor=#d5e8d4;strokeColor=#82b366;" vertex="1" parent="1">
          <mxGeometry x="880" y="1080" width="120" height="60" as="geometry" />
        </mxCell>
        <mxCell id="jhJfc1S5eE6XktnZOSAG-43" style="edgeStyle=orthogonalEdgeStyle;rounded=0;orthogonalLoop=1;jettySize=auto;html=1;" edge="1" parent="1" source="jhJfc1S5eE6XktnZOSAG-37" target="jhJfc1S5eE6XktnZOSAG-42">
          <mxGeometry relative="1" as="geometry" />
        </mxCell>
        <mxCell id="jhJfc1S5eE6XktnZOSAG-37" value="Positive Comment from Machine" style="rounded=1;whiteSpace=wrap;html=1;fillColor=#d5e8d4;strokeColor=#82b366;" vertex="1" parent="1">
          <mxGeometry x="720" y="1200.5" width="120" height="60" as="geometry" />
        </mxCell>
        <mxCell id="jhJfc1S5eE6XktnZOSAG-47" style="edgeStyle=orthogonalEdgeStyle;rounded=0;orthogonalLoop=1;jettySize=auto;html=1;" edge="1" parent="1" source="jhJfc1S5eE6XktnZOSAG-42" target="jhJfc1S5eE6XktnZOSAG-46">
          <mxGeometry relative="1" as="geometry" />
        </mxCell>
        <mxCell id="jhJfc1S5eE6XktnZOSAG-48" value="No" style="edgeLabel;html=1;align=center;verticalAlign=middle;resizable=0;points=[];" vertex="1" connectable="0" parent="jhJfc1S5eE6XktnZOSAG-47">
          <mxGeometry x="0.0222" y="-2" relative="1" as="geometry">
            <mxPoint x="1" as="offset" />
          </mxGeometry>
        </mxCell>
        <mxCell id="jhJfc1S5eE6XktnZOSAG-51" style="edgeStyle=orthogonalEdgeStyle;rounded=0;orthogonalLoop=1;jettySize=auto;html=1;" edge="1" parent="1" source="jhJfc1S5eE6XktnZOSAG-42" target="jhJfc1S5eE6XktnZOSAG-50">
          <mxGeometry relative="1" as="geometry" />
        </mxCell>
        <mxCell id="jhJfc1S5eE6XktnZOSAG-52" value="Yes" style="edgeLabel;html=1;align=center;verticalAlign=middle;resizable=0;points=[];" vertex="1" connectable="0" parent="jhJfc1S5eE6XktnZOSAG-51">
          <mxGeometry x="-0.6" y="1" relative="1" as="geometry">
            <mxPoint as="offset" />
          </mxGeometry>
        </mxCell>
        <mxCell id="jhJfc1S5eE6XktnZOSAG-42" value="All Objects in bin?" style="rhombus;whiteSpace=wrap;html=1;" vertex="1" parent="1">
          <mxGeometry x="747.5" y="1280" width="65" height="60" as="geometry" />
        </mxCell>
        <mxCell id="jhJfc1S5eE6XktnZOSAG-49" style="edgeStyle=orthogonalEdgeStyle;rounded=0;orthogonalLoop=1;jettySize=auto;html=1;" edge="1" parent="1" source="jhJfc1S5eE6XktnZOSAG-46" target="jhJfc1S5eE6XktnZOSAG-31">
          <mxGeometry relative="1" as="geometry">
            <Array as="points">
              <mxPoint x="1040" y="1310" />
              <mxPoint x="1040" y="1030" />
            </Array>
          </mxGeometry>
        </mxCell>
        <mxCell id="jhJfc1S5eE6XktnZOSAG-46" value="Information that something is missing" style="rounded=1;whiteSpace=wrap;html=1;fillColor=#d5e8d4;strokeColor=#82b366;" vertex="1" parent="1">
          <mxGeometry x="880" y="1280" width="120" height="60" as="geometry" />
        </mxCell>
        <mxCell id="jhJfc1S5eE6XktnZOSAG-54" style="edgeStyle=orthogonalEdgeStyle;rounded=0;orthogonalLoop=1;jettySize=auto;html=1;" edge="1" parent="1" source="jhJfc1S5eE6XktnZOSAG-50" target="jhJfc1S5eE6XktnZOSAG-53">
          <mxGeometry relative="1" as="geometry" />
        </mxCell>
        <mxCell id="jhJfc1S5eE6XktnZOSAG-50" value="Information that first riddle solved" style="rounded=1;whiteSpace=wrap;html=1;fillColor=#d5e8d4;strokeColor=#82b366;" vertex="1" parent="1">
          <mxGeometry x="720" y="1400" width="120" height="60" as="geometry" />
        </mxCell>
        <mxCell id="jhJfc1S5eE6XktnZOSAG-56" style="edgeStyle=orthogonalEdgeStyle;rounded=0;orthogonalLoop=1;jettySize=auto;html=1;" edge="1" parent="1" source="jhJfc1S5eE6XktnZOSAG-53" target="jhJfc1S5eE6XktnZOSAG-55">
          <mxGeometry relative="1" as="geometry" />
        </mxCell>
        <mxCell id="jhJfc1S5eE6XktnZOSAG-53" value="teleportation in arcade Game" style="rounded=1;whiteSpace=wrap;html=1;fillColor=#d5e8d4;strokeColor=#82b366;" vertex="1" parent="1">
          <mxGeometry x="720" y="1480" width="120" height="60" as="geometry" />
        </mxCell>
        <mxCell id="jhJfc1S5eE6XktnZOSAG-58" style="edgeStyle=orthogonalEdgeStyle;rounded=0;orthogonalLoop=1;jettySize=auto;html=1;" edge="1" parent="1" source="jhJfc1S5eE6XktnZOSAG-55" target="jhJfc1S5eE6XktnZOSAG-57">
          <mxGeometry relative="1" as="geometry" />
        </mxCell>
        <mxCell id="jhJfc1S5eE6XktnZOSAG-55" value="Player hears voice from Arcade Game with informations" style="rounded=1;whiteSpace=wrap;html=1;fillColor=#d5e8d4;strokeColor=#82b366;" vertex="1" parent="1">
          <mxGeometry x="720" y="1560" width="120" height="60" as="geometry" />
        </mxCell>
        <mxCell id="jhJfc1S5eE6XktnZOSAG-61" style="edgeStyle=orthogonalEdgeStyle;rounded=0;orthogonalLoop=1;jettySize=auto;html=1;" edge="1" parent="1" source="jhJfc1S5eE6XktnZOSAG-57" target="jhJfc1S5eE6XktnZOSAG-60">
          <mxGeometry relative="1" as="geometry" />
        </mxCell>
        <mxCell id="jhJfc1S5eE6XktnZOSAG-57" value="Player trys to solve Cube Riddle" style="rounded=1;whiteSpace=wrap;html=1;fillColor=#d5e8d4;strokeColor=#82b366;" vertex="1" parent="1">
          <mxGeometry x="720" y="1640" width="120" height="60" as="geometry" />
        </mxCell>
        <mxCell id="jhJfc1S5eE6XktnZOSAG-64" style="edgeStyle=orthogonalEdgeStyle;rounded=0;orthogonalLoop=1;jettySize=auto;html=1;" edge="1" parent="1" source="jhJfc1S5eE6XktnZOSAG-60" target="jhJfc1S5eE6XktnZOSAG-62">
          <mxGeometry relative="1" as="geometry" />
        </mxCell>
        <mxCell id="jhJfc1S5eE6XktnZOSAG-67" value="Yes" style="edgeLabel;html=1;align=center;verticalAlign=middle;resizable=0;points=[];" vertex="1" connectable="0" parent="jhJfc1S5eE6XktnZOSAG-64">
          <mxGeometry x="-0.5667" y="-1" relative="1" as="geometry">
            <mxPoint as="offset" />
          </mxGeometry>
        </mxCell>
        <mxCell id="jhJfc1S5eE6XktnZOSAG-65" style="edgeStyle=orthogonalEdgeStyle;rounded=0;orthogonalLoop=1;jettySize=auto;html=1;entryX=1;entryY=0.5;entryDx=0;entryDy=0;" edge="1" parent="1" source="jhJfc1S5eE6XktnZOSAG-60" target="jhJfc1S5eE6XktnZOSAG-57">
          <mxGeometry relative="1" as="geometry">
            <Array as="points">
              <mxPoint x="860" y="1750" />
              <mxPoint x="860" y="1670" />
            </Array>
          </mxGeometry>
        </mxCell>
        <mxCell id="jhJfc1S5eE6XktnZOSAG-66" value="No" style="edgeLabel;html=1;align=center;verticalAlign=middle;resizable=0;points=[];" vertex="1" connectable="0" parent="jhJfc1S5eE6XktnZOSAG-65">
          <mxGeometry x="0.3627" y="-1" relative="1" as="geometry">
            <mxPoint as="offset" />
          </mxGeometry>
        </mxCell>
        <mxCell id="jhJfc1S5eE6XktnZOSAG-60" value="Hit goal?" style="rhombus;whiteSpace=wrap;html=1;" vertex="1" parent="1">
          <mxGeometry x="747.5" y="1720" width="65" height="60" as="geometry" />
        </mxCell>
        <mxCell id="jhJfc1S5eE6XktnZOSAG-62" value="Teleport to next room" style="rounded=1;whiteSpace=wrap;html=1;fillColor=#d5e8d4;strokeColor=#82b366;" vertex="1" parent="1">
          <mxGeometry x="720" y="1840" width="120" height="60" as="geometry" />
        </mxCell>
      </root>
    </mxGraphModel>
  </diagram>
</mxfile>
